<?xml version="1.0" encoding="utf-8"?>
<!-- Generator: Adobe Illustrator 19.0.0, SVG Export Plug-In . SVG Version: 6.00 Build 0)  -->
<svg version="1.1" id="Layer_1" xmlns="http://www.w3.org/2000/svg" xmlns:xlink="http://www.w3.org/1999/xlink" x="0px" y="0px"
	 viewBox="0 0 95 159" style="enable-background:new 0 0 95 159;" xml:space="preserve">
<style type="text/css">
	.st0{fill:none;}
</style>
<g id="XMLID_1_">
	<path id="XMLID_4_" class="st0" d="M47.9,99.2c1.2,0,1.7-0.8,1.7-2v-1.4h-3.3v1.4C46.3,98.4,46.7,99.2,47.9,99.2z"/>
	<path id="XMLID_34_" class="st0" d="M47.9,6.3c1.2,0,1.7-0.8,1.7-2V2.9h-3.3v1.4C46.3,5.5,46.7,6.3,47.9,6.3z"/>
	<path id="XMLID_35_" class="st0" d="M46.1,40.9c1.8,0,3.5-1.2,3.5-3.4v-1.8h-7.1v1.8C42.4,39.8,44.1,40.9,46.1,40.9z"/>
	<path id="XMLID_36_" class="st0" d="M46,17.2c-2.2,0-3.8,1.5-3.8,3.5s1.6,3.5,3.8,3.5c2.2,0,3.8-1.5,3.8-3.5S48.1,17.2,46,17.2z"/>
	<polygon id="XMLID_37_" points="6.9,62.4 3.1,53.3 0,53.3 5.6,65.9 8.2,65.9 13.8,53.3 10.8,53.3 	"/>
	<rect id="XMLID_38_" x="22.5" y="53.3" width="2.9" height="12.6"/>
	<polygon id="XMLID_39_" points="45.8,65.9 45.8,53.3 42.9,53.3 42.9,60.7 37,53.3 34.7,53.3 34.7,65.9 37.6,65.9 37.6,58.6 
		43.5,65.9 	"/>
	<rect id="XMLID_40_" x="55.1" y="53.3" width="2.9" height="12.6"/>
	<path id="XMLID_41_" d="M73.9,63.4c-2.2,0-3.7-1.6-3.7-3.8s1.5-3.8,3.7-3.8c0.8,0,1.7,0.3,2.3,0.7l1.7-2c-1.1-1-2.6-1.5-4.2-1.5
		c-3.6,0-6.6,2.6-6.6,6.5c0,3.8,3,6.5,6.6,6.5c1.7,0,3.2-0.5,4.3-1.5l-1.7-2C75.7,63.1,74.8,63.4,73.9,63.4z"/>
	<polygon id="XMLID_42_" points="89.8,63.3 89.8,60.9 93.6,60.9 93.6,58.3 89.8,58.3 89.8,56 94.8,56 94.8,53.3 89.8,53.3 
		86.9,53.3 86.9,65.9 89.5,65.9 95,65.9 95,63.3 	"/>
	<path id="XMLID_45_" d="M43.8,4.5c0,2.8,1.5,4.7,4.1,4.7c2.6,0,4.3-1.9,4.3-4.7V0H39.7v2.9h4.1V4.5z M46.3,2.9h3.3v1.4
		c0,1.2-0.4,2-1.7,2c-1.3,0-1.7-0.8-1.7-2V2.9z"/>
	<path id="XMLID_48_" d="M46,14.2c-3.8,0-6.5,3-6.5,6.6s2.6,6.6,6.5,6.6c3.8,0,6.5-3,6.5-6.6S49.8,14.2,46,14.2z M46,24.3
		c-2.2,0-3.8-1.5-3.8-3.5s1.6-3.5,3.8-3.5c2.2,0,3.8,1.5,3.8,3.5S48.1,24.3,46,24.3z"/>
	<path id="XMLID_51_" d="M39.7,37.5c0,3.6,2.8,6.4,6.4,6.4c3.4,0,6.2-2.8,6.2-6.4v-4.7H39.7V37.5z M42.4,35.7h7.1v1.8
		c0,2.3-1.7,3.4-3.5,3.4c-2,0-3.7-1.2-3.7-3.4V35.7z"/>
	<polygon id="XMLID_52_" points="39.7,79.3 43.3,79.3 44.9,80.7 39.7,84.4 39.7,87.8 47,82.5 52.3,87.2 52.3,83.6 47.1,79.3 
		52.3,79.3 52.3,76.3 39.7,76.3 	"/>
	<path id="XMLID_55_" d="M39.7,95.8h4.1v1.5l-4.1,2.6v3.1l4.7-3c0.6,1.3,1.9,2.1,3.6,2.1c2.6,0,4.3-1.9,4.3-4.7v-4.5H39.7V95.8z
		 M46.3,95.8h3.3v1.4c0,1.2-0.4,2-1.7,2c-1.3,0-1.7-0.8-1.7-2V95.8z"/>
	<polygon id="XMLID_56_" points="53,99 55.5,100.9 55.5,98.9 54,97.1 55.5,95.2 55.5,93.3 53,95.1 	"/>
	<rect id="XMLID_57_" x="39.7" y="108.2" width="12.6" height="2.9"/>
	<polygon id="XMLID_58_" points="53.2,110.7 55.5,113.1 55.5,109.7 53.2,108.5 	"/>
	<polygon id="XMLID_59_" points="49.8,121.9 39.7,116.4 39.7,126.6 42.1,126.6 42.1,121 52.3,126.5 52.3,116.7 49.8,116.7 	"/>
	<polygon id="XMLID_60_" points="53,123 55.5,124.9 55.5,122.9 54,121.1 55.5,119.2 55.5,117.3 53,119.1 	"/>
	<polygon id="XMLID_61_" points="39.7,134.4 39.7,140 42.3,140 42.3,134.8 44.7,134.8 44.7,138.5 47.3,138.5 47.3,134.8 49.6,134.8 
		49.6,139.8 52.3,139.8 52.3,134.8 52.3,131.9 39.7,131.9 	"/>
	<polygon id="XMLID_62_" points="39.7,148.4 45.7,148.4 39.7,151 39.7,153.5 45.7,156 39.7,156 39.7,159 52.3,159 52.3,156.2 
		43.5,152.2 52.3,148.3 52.3,145.4 39.7,145.4 	"/>
</g>
</svg>
